<svg width="64" height="64" viewBox="0 0 64 64" fill="none" xmlns="http://www.w3.org/2000/svg">
<circle cx="32" cy="32" r="32" fill="white"/>
<path d="M35.4133 49.4933L28.5866 49.4934C27.1933 49.4934 26.0266 50.6933 26.0266 52.3733C26.0266 52.6933 26.1973 53.3333 26.8799 53.3333H37.1199C37.7599 53.3333 37.9733 52.6134 37.9733 52.3734C37.9733 50.4534 36.6933 49.4933 35.4133 49.4933Z" fill="black"/>
<path d="M22.3936 36.315L23.7349 36.1027L24.923 36.0256L25.8299 37.1381C25.8299 37.1381 26.3792 40.4886 27.3884 41.4789C28.0475 42.1257 32.0251 44.1453 35.5385 42.3149C37.4052 41.3424 37.9274 35.7169 40.099 36.0256C42.2707 36.3342 42.1337 37.4493 40.3928 39.9999C40.7888 42.9195 39.9802 42.3166 37.6591 43.9484C37.2631 44.913 37.3142 46.6879 34.7465 45.6847C33.5539 46.5412 33.7884 47.7812 32.0383 47.7812C30.2882 47.7812 30.3138 45.4018 27.695 45.7748C25.715 44.5014 26.6603 43.0867 24.8463 42.9195C23.0323 42.7522 23.5944 41.7362 23.5944 41.7362L23.4922 39.5754L22.3936 38.7973V36.315Z" fill="black"/>
<path d="M24.2078 39.5702L24.4222 39.9205L25.631 39.1706L24.2112 39.1586L24.2078 39.5702ZM24.1809 39.5868L23.9664 39.2364L23.9657 39.2369L24.1809 39.5868ZM26.6773 42.8855L27.0185 43.1121L26.4254 42.5614L26.6773 42.8855ZM29.9283 45.3847L30.3355 45.4211L30.4559 44.0561L29.6084 45.1284L29.9283 45.3847ZM34.0717 45.3847L34.3916 45.1284L33.5441 44.0561L33.6645 45.4211L34.0717 45.3847ZM37.3227 42.8855L37.5747 42.5614L36.9815 43.1121L37.3227 42.8855ZM39.8192 39.5868L40.0343 39.2369L40.0336 39.2364L39.8192 39.5868ZM39.7923 39.5702L39.7888 39.1586L38.369 39.1707L39.5778 39.9205L39.7923 39.5702ZM39.7816 39.6119L39.9961 39.2615L39.9958 39.2613L39.7816 39.6119ZM39.7976 39.6218L40.0128 39.2719L40.0121 39.2715L39.7976 39.6218ZM37.2146 42.7327L36.8908 42.9839L36.9044 43.0018L36.92 43.018L37.2146 42.7327ZM37.1252 42.6229L37.4328 42.3519L37.1807 42.0618L36.8767 42.2961L37.1252 42.6229ZM37.0928 42.6479L36.8443 42.3211L36.5403 42.5554L36.7527 42.8762L37.0928 42.6479ZM37.1835 42.7596L37.5076 42.5087L37.4941 42.491L37.4788 42.4749L37.1835 42.7596ZM34.0609 45.3003L34.4011 45.072L34.2228 44.8029L33.921 44.9136L34.0609 45.3003ZM34.0236 45.314L33.8837 44.9273L33.5818 45.038L33.6173 45.3595L34.0236 45.314ZM29.9764 45.314L30.3827 45.3595L30.4182 45.038L30.1163 44.9273L29.9764 45.314ZM29.9391 45.3003L30.079 44.9136L29.7772 44.8029L29.599 45.072L29.9391 45.3003ZM26.8165 42.7596L26.5212 42.4749L26.5059 42.491L26.4924 42.5087L26.8165 42.7596ZM26.9072 42.6479L27.2474 42.8762L27.4597 42.5554L27.1557 42.3211L26.9072 42.6479ZM26.8749 42.6229L27.1234 42.2961L26.8193 42.0618L26.5672 42.3519L26.8749 42.6229ZM26.7854 42.7327L27.0801 43.018L27.0956 43.0018L27.1093 42.9839L26.7854 42.7327ZM24.2024 39.6218L23.9879 39.2715L23.9872 39.2719L24.2024 39.6218ZM24.2184 39.6119L24.0043 39.2613L24.0039 39.2615L24.2184 39.6119ZM26.8216 41.1027C28.1529 43.1329 30.0574 43.7477 32 43.7477V42.9246C30.2475 42.9246 28.6425 42.3856 27.5039 40.6492L26.8216 41.1027ZM25.4895 37.6493C25.4895 38.7519 25.9423 39.7617 26.8216 41.1027L27.5039 40.6492C26.6471 39.3424 26.3071 38.5022 26.3071 37.6493H25.4895ZM25.1407 36.6459C25.3648 36.8866 25.4895 37.2344 25.4895 37.6493H26.3071C26.3071 37.0722 26.1323 36.5073 25.7371 36.0829L25.1407 36.6459ZM24.0288 36.2365C24.5683 36.2365 24.9209 36.4099 25.1407 36.6459L25.7371 36.0829C25.337 35.6532 24.7536 35.4133 24.0288 35.4133V36.2365ZM22.5776 37.6976C22.5776 36.8846 23.2213 36.2365 24.0288 36.2365V35.4133C22.7697 35.4133 21.76 36.43 21.76 37.6976H22.5776ZM22.9592 38.6662C22.6983 38.3833 22.5776 38.0173 22.5776 37.6976H21.76C21.76 38.2106 21.9493 38.7809 22.3601 39.2264L22.9592 38.6662ZM24.2112 39.1586C23.6085 39.1534 23.2099 38.938 22.9592 38.6662L22.3601 39.2264C22.7741 39.6753 23.3923 39.9748 24.2043 39.9817L24.2112 39.1586ZM24.3953 39.9372L24.4222 39.9205L23.9933 39.2197L23.9664 39.2364L24.3953 39.9372ZM24.1756 40.1091C24.2597 40.0244 24.3393 39.9721 24.396 39.9368L23.9657 39.2369C23.8872 39.2858 23.7466 39.377 23.5975 39.527L24.1756 40.1091ZM23.8039 41.196C23.8039 40.5823 24.0164 40.2694 24.1756 40.1091L23.5975 39.527C23.2894 39.8373 22.9864 40.3579 22.9864 41.196H23.8039ZM25.4595 42.8628C24.6263 42.8628 23.8039 42.1897 23.8039 41.196H22.9864C22.9864 42.6971 24.2289 43.686 25.4595 43.686V42.8628ZM26.4254 42.5614C26.2482 42.7009 25.9295 42.8628 25.4595 42.8628V43.686C26.1259 43.686 26.6195 43.4536 26.9292 43.2096L26.4254 42.5614ZM26.6961 43.9358C26.7398 43.6288 26.869 43.3404 27.0185 43.1121L26.336 42.6589C26.1368 42.9631 25.9514 43.3649 25.8868 43.819L26.6961 43.9358ZM27.1648 45.2411C26.7244 44.7976 26.6385 44.3402 26.6961 43.9358L25.8868 43.819C25.7954 44.4615 25.9514 45.1835 26.5867 45.8231L27.1648 45.2411ZM28.664 45.6879C28.2055 45.8023 27.6685 45.7481 27.1648 45.2411L26.5867 45.8231C27.321 46.5623 28.1646 46.6605 28.8606 46.4869L28.664 45.6879ZM29.6084 45.1284C29.4683 45.3057 29.111 45.5764 28.664 45.6879L28.8606 46.4869C29.4757 46.3335 29.9914 45.9659 30.2482 45.6409L29.6084 45.1284ZM30.8518 46.9478C30.5252 46.6577 30.268 46.1866 30.3355 45.4211L29.5212 45.3483C29.4315 46.3645 29.7821 47.0953 30.3108 47.565L30.8518 46.9478ZM32 47.3902C31.672 47.3902 31.2054 47.262 30.8518 46.9478L30.3108 47.565C30.8344 48.0301 31.5019 48.2133 32 48.2133V47.3902ZM33.1483 46.9478C32.7946 47.262 32.328 47.3902 32 47.3902V48.2133C32.4981 48.2133 33.1657 48.0301 33.6892 47.5651L33.1483 46.9478ZM33.6645 45.4211C33.732 46.1866 33.4748 46.6577 33.1483 46.9478L33.6892 47.5651C34.218 47.0953 34.5685 46.3645 34.4789 45.3483L33.6645 45.4211ZM35.336 45.6879C34.889 45.5764 34.5317 45.3057 34.3916 45.1284L33.7518 45.6409C34.0086 45.9659 34.5244 46.3335 35.1394 46.4869L35.336 45.6879ZM36.8352 45.2411C36.3315 45.7481 35.7945 45.8023 35.336 45.6879L35.1394 46.4869C35.8354 46.6605 36.6791 46.5623 37.4133 45.8231L36.8352 45.2411ZM37.304 43.9358C37.3615 44.3402 37.2756 44.7976 36.8352 45.2411L37.4133 45.8231C38.0486 45.1835 38.2047 44.4615 38.1133 43.819L37.304 43.9358ZM36.9815 43.1121C37.131 43.3404 37.2603 43.6287 37.304 43.9358L38.1133 43.819C38.0486 43.3649 37.8632 42.9631 37.664 42.6589L36.9815 43.1121ZM38.5405 42.8628C38.0706 42.8628 37.7518 42.7009 37.5747 42.5614L37.0708 43.2096C37.3805 43.4536 37.8741 43.686 38.5405 43.686V42.8628ZM40.1961 41.196C40.1961 42.1897 39.3737 42.8628 38.5405 42.8628V43.686C39.7711 43.686 41.0137 42.6971 41.0137 41.196H40.1961ZM39.8244 40.1091C39.9836 40.2694 40.1961 40.5823 40.1961 41.196H41.0137C41.0137 40.3579 40.7107 39.8373 40.4025 39.527L39.8244 40.1091ZM39.604 39.9368C39.6607 39.9721 39.7403 40.0244 39.8244 40.1091L40.4025 39.527C40.2534 39.377 40.1128 39.2858 40.0343 39.2369L39.604 39.9368ZM39.5778 39.9205L39.6047 39.9372L40.0336 39.2364L40.0067 39.2197L39.5778 39.9205ZM41.0408 38.6663C40.7902 38.938 40.3916 39.1535 39.7888 39.1586L39.7957 39.9817C40.6077 39.9748 41.2259 39.6753 41.6399 39.2264L41.0408 38.6663ZM41.4224 37.6976C41.4224 38.0173 41.3017 38.3833 41.0408 38.6663L41.6399 39.2264C42.0507 38.7809 42.24 38.2106 42.24 37.6976H41.4224ZM39.9713 36.2365C40.7787 36.2365 41.4224 36.8846 41.4224 37.6976H42.24C42.24 36.43 41.2303 35.4133 39.9713 35.4133V36.2365ZM38.8594 36.6459C39.0791 36.4099 39.4317 36.2365 39.9713 36.2365V35.4133C39.2465 35.4133 38.663 35.6532 38.2629 36.0829L38.8594 36.6459ZM38.5105 37.6494C38.5105 37.2344 38.6352 36.8866 38.8594 36.6459L38.2629 36.0829C37.8678 36.5073 37.693 37.0722 37.693 37.6494H38.5105ZM37.1784 41.1027C38.0577 39.7617 38.5105 38.7519 38.5105 37.6494H37.693C37.693 38.5022 37.353 39.3424 36.4961 40.6492L37.1784 41.1027ZM32 43.7477C33.9426 43.7477 35.8471 43.1329 37.1784 41.1027L36.4961 40.6492C35.3575 42.3856 33.7525 42.9246 32 42.9246V43.7477ZM32 42.9657C30.238 42.9657 28.618 42.423 27.4698 40.6719L26.7875 41.1254C28.1284 43.1703 30.0479 43.7889 32 43.7889V42.9657ZM36.5302 40.6719C35.382 42.423 33.762 42.9657 32 42.9657V43.7889C33.9521 43.7889 35.8716 43.1703 37.2125 41.1254L36.5302 40.6719ZM37.7338 37.6494C37.7338 38.5147 37.3882 39.3634 36.5302 40.6719L37.2125 41.1254C38.093 39.7826 38.5514 38.7644 38.5514 37.6494H37.7338ZM38.2928 36.111C37.9061 36.5262 37.7338 37.0803 37.7338 37.6494H38.5514C38.5514 37.2426 38.6735 36.9056 38.8892 36.674L38.2928 36.111ZM39.9713 35.4545C39.2557 35.4545 38.6838 35.6911 38.2928 36.111L38.8892 36.674C39.0999 36.4477 39.441 36.2776 39.9713 36.2776V35.4545ZM42.1991 37.6976C42.1991 36.4527 41.2077 35.4545 39.9713 35.4545V36.2776C40.7562 36.2776 41.3816 36.9073 41.3816 37.6976H42.1991ZM41.61 39.1984C42.0133 38.761 42.1991 38.201 42.1991 37.6976H41.3816C41.3816 38.0077 41.2642 38.3635 41.0108 38.6382L41.61 39.1984ZM39.7669 39.9407C40.5823 39.9407 41.1991 39.6438 41.61 39.1984L41.0108 38.6382C40.7657 38.9041 40.3716 39.1175 39.7669 39.1175V39.9407ZM39.7921 39.9391C39.7837 39.94 39.7773 39.9404 39.7737 39.9405C39.7699 39.9407 39.7669 39.9407 39.7669 39.9407V39.1175C39.7537 39.1175 39.7316 39.1178 39.706 39.1206L39.7921 39.9391ZM39.9141 39.903C39.8805 39.9197 39.8512 39.928 39.8323 39.9323C39.8132 39.9367 39.7982 39.9385 39.7921 39.9391L39.706 39.1206C39.6904 39.1222 39.625 39.1288 39.5525 39.1648L39.9141 39.903ZM40.0594 39.7769C40.0095 39.8492 39.9483 39.8861 39.9141 39.903L39.5525 39.1648C39.5129 39.1845 39.4438 39.2263 39.3878 39.3075L40.0594 39.7769ZM40.1253 39.5084C40.1363 39.5987 40.1157 39.6951 40.0594 39.7769L39.3878 39.3075C39.3246 39.3991 39.3015 39.5072 39.3138 39.6085L40.1253 39.5084ZM40.0179 39.2848C40.0231 39.29 40.0453 39.3123 40.0671 39.3463C40.0892 39.3806 40.1165 39.4356 40.1253 39.5084L39.3138 39.6085C39.3329 39.7656 39.4302 39.8572 39.4399 39.8669L40.0179 39.2848ZM39.9753 39.2485C39.9718 39.2463 39.9741 39.2477 39.9788 39.2511C39.9814 39.253 39.9861 39.2565 39.9922 39.2614C39.9979 39.2661 40.0071 39.274 40.0179 39.2848L39.4399 39.8669C39.4826 39.91 39.531 39.9395 39.5356 39.9425L39.9753 39.2485ZM39.9958 39.2613C39.9849 39.2546 39.9792 39.2511 39.9753 39.2485L39.5356 39.9425C39.5465 39.9495 39.5585 39.9569 39.5675 39.9625L39.9958 39.2613ZM40.0121 39.2715L39.9961 39.2615L39.5671 39.9623L39.5831 39.9722L40.0121 39.2715ZM40.3736 39.5562C40.2278 39.4093 40.0902 39.3201 40.0128 39.2719L39.5825 39.9718C39.6381 40.0065 39.7146 40.0568 39.7955 40.1382L40.3736 39.5562ZM40.9728 41.196C40.9728 40.3691 40.6743 39.8589 40.3736 39.5562L39.7955 40.1382C39.9472 40.291 40.1552 40.5935 40.1552 41.196H40.9728ZM38.5405 43.6448C39.7514 43.6448 40.9728 42.6715 40.9728 41.196H40.1552C40.1552 42.1645 39.3537 42.8217 38.5405 42.8217V43.6448ZM36.92 43.018C37.192 43.3029 37.7374 43.6448 38.5405 43.6448V42.8217C37.9777 42.8217 37.64 42.5844 37.5093 42.4475L36.92 43.018ZM36.8176 42.894C36.8413 42.9213 36.8659 42.9514 36.8908 42.9839L37.5384 42.4816C37.5034 42.4358 37.4681 42.3925 37.4328 42.3519L36.8176 42.894ZM37.3413 42.9747L37.3737 42.9497L36.8767 42.2961L36.8443 42.3211L37.3413 42.9747ZM37.4788 42.4749C37.4538 42.4487 37.4394 42.4293 37.4329 42.4196L36.7527 42.8762C36.79 42.9326 36.836 42.9892 36.8883 43.0442L37.4788 42.4749ZM38.0728 43.8249C37.9966 43.2892 37.7491 42.8248 37.5076 42.5087L36.8595 43.0105C37.0384 43.2447 37.212 43.5796 37.2635 43.9416L38.0728 43.8249ZM37.3844 45.794C38.0099 45.1642 38.1625 44.4554 38.0728 43.8249L37.2635 43.9416C37.3193 44.3341 37.237 44.7783 36.8063 45.212L37.3844 45.794ZM35.1492 46.4469C35.8334 46.6177 36.6617 46.5216 37.3844 45.794L36.8063 45.212C36.3141 45.7075 35.7924 45.7594 35.3459 45.6479L35.1492 46.4469ZM33.7208 45.5286C33.9492 45.8735 34.4971 46.2842 35.1492 46.4469L35.3459 45.6479C34.8639 45.5277 34.5013 45.2235 34.4011 45.072L33.7208 45.5286ZM34.1635 45.7007L34.2009 45.687L33.921 44.9136L33.8837 44.9273L34.1635 45.7007ZM33.6621 47.5342C34.196 47.0598 34.5453 46.3147 34.4299 45.2685L33.6173 45.3595C33.7049 46.1527 33.4455 46.6289 33.1212 46.9169L33.6621 47.5342ZM32 48.1722C32.4896 48.1722 33.1471 47.9917 33.6621 47.5342L33.1212 46.9169C32.776 47.2236 32.3195 47.349 32 47.349V48.1722ZM30.3379 47.5342C30.8529 47.9917 31.5104 48.1722 32 48.1722V47.349C31.6805 47.349 31.224 47.2236 30.8788 46.9169L30.3379 47.5342ZM29.5701 45.2685C29.4547 46.3147 29.804 47.0598 30.3379 47.5342L30.8788 46.9169C30.5546 46.6288 30.2951 46.1527 30.3827 45.3595L29.5701 45.2685ZM29.7992 45.687L29.8365 45.7007L30.1163 44.9273L30.079 44.9136L29.7992 45.687ZM28.8508 46.4469C29.5029 46.2842 30.0509 45.8735 30.2792 45.5286L29.599 45.072C29.4987 45.2235 29.1361 45.5277 28.6542 45.6479L28.8508 46.4469ZM26.6156 45.794C27.3383 46.5216 28.1666 46.6176 28.8508 46.4469L28.6542 45.6479C28.2076 45.7594 27.6859 45.7075 27.1937 45.212L26.6156 45.794ZM25.9272 43.8249C25.8375 44.4554 25.9901 45.1642 26.6156 45.794L27.1937 45.212C26.7631 44.7783 26.6807 44.3341 26.7365 43.9416L25.9272 43.8249ZM26.4924 42.5087C26.251 42.8248 26.0035 43.2892 25.9272 43.8249L26.7365 43.9416C26.788 43.5796 26.9616 43.2447 27.1405 43.0105L26.4924 42.5087ZM26.5671 42.4196C26.5607 42.4293 26.5462 42.4487 26.5212 42.4749L27.1117 43.0442C27.164 42.9892 27.2101 42.9326 27.2474 42.8762L26.5671 42.4196ZM26.6264 42.9497L26.6587 42.9747L27.1557 42.3211L27.1234 42.2961L26.6264 42.9497ZM27.1093 42.9839C27.1341 42.9513 27.1587 42.9213 27.1825 42.894L26.5672 42.3519C26.5319 42.3925 26.4966 42.4358 26.4616 42.4815L27.1093 42.9839ZM25.4595 43.6448C26.2626 43.6448 26.8081 43.3029 27.0801 43.018L26.4908 42.4475C26.36 42.5844 26.0223 42.8217 25.4595 42.8217V43.6448ZM23.0272 41.196C23.0272 42.6715 24.2486 43.6448 25.4595 43.6448V42.8217C24.6463 42.8217 23.8448 42.1645 23.8448 41.196H23.0272ZM23.6264 39.5562C23.3257 39.8589 23.0272 40.3691 23.0272 41.196H23.8448C23.8448 40.5935 24.0528 40.291 24.2045 40.1382L23.6264 39.5562ZM23.9872 39.2719C23.9098 39.3201 23.7722 39.4093 23.6264 39.5562L24.2045 40.1382C24.2854 40.0568 24.3619 40.0065 24.4175 39.9718L23.9872 39.2719ZM24.0039 39.2615L23.9879 39.2715L24.4169 39.9722L24.4329 39.9623L24.0039 39.2615ZM24.0247 39.2485C24.0208 39.2511 24.0151 39.2546 24.0043 39.2613L24.4325 39.9625C24.4415 39.9569 24.4536 39.9495 24.4645 39.9425L24.0247 39.2485ZM23.9821 39.2848C23.9929 39.274 24.0021 39.2661 24.0079 39.2614C24.0139 39.2564 24.0186 39.2529 24.0212 39.2511C24.0259 39.2477 24.0282 39.2463 24.0247 39.2485L24.4645 39.9425C24.4691 39.9395 24.5174 39.91 24.5602 39.8669L23.9821 39.2848ZM23.8747 39.5084C23.8835 39.4356 23.9109 39.3806 23.9329 39.3463C23.9547 39.3122 23.977 39.29 23.9821 39.2848L24.5602 39.8669C24.5698 39.8572 24.6671 39.7655 24.6862 39.6084L23.8747 39.5084ZM23.9406 39.7769C23.8842 39.695 23.8637 39.5986 23.8747 39.5084L24.6862 39.6084C24.6985 39.5072 24.6755 39.3992 24.6123 39.3075L23.9406 39.7769ZM24.0858 39.903C24.0518 39.886 23.9905 39.8492 23.9406 39.7769L24.6123 39.3075C24.5563 39.2263 25.7065 38.8521 25.6669 38.8324L24.0858 39.903ZM24.2079 39.9391C24.2018 39.9385 24.1868 39.9367 24.1677 39.9323C24.1488 39.928 24.1195 39.9197 24.0858 39.903L25.6669 38.8324C25.5944 38.7964 24.3096 39.1222 24.294 39.1206L24.2079 39.9391ZM24.2331 39.9407C24.2331 39.9407 24.2301 39.9407 24.2264 39.9405C24.2228 39.9404 24.2163 39.94 24.2079 39.9391L24.294 39.1206C24.2685 39.1178 24.2463 39.1175 24.2331 39.1175V39.9407ZM24.0288 35.4545C22.7923 35.4545 21.8009 36.4527 21.8009 37.6976H22.6185C22.6185 36.9073 23.2438 36.2776 24.0288 36.2776V35.4545ZM25.7073 36.111C25.3162 35.6911 24.7443 35.4545 24.0288 35.4545V36.2776C24.559 36.2776 24.9001 36.4477 25.1108 36.674L25.7073 36.111ZM26.2662 37.6493C26.2662 37.0803 26.0939 36.5262 25.7073 36.111L25.1108 36.674C25.3265 36.9056 25.4486 37.2426 25.4486 37.6493H26.2662ZM27.4698 40.6719C26.6118 39.3634 26.2662 38.5147 26.2662 37.6493H25.4486C25.4486 38.7644 25.907 39.7826 26.7875 41.1254L27.4698 40.6719Z" fill="black"/>
<path fill-rule="evenodd" clip-rule="evenodd" d="M33.7066 38.8267H30.2966L30.2933 38.8267C29.822 38.8267 29.4399 39.2087 29.4399 39.68C29.4399 40.1513 29.822 40.5333 30.2933 40.5333V40.5333H33.7066C34.1779 40.5333 34.5599 40.1513 34.5599 39.68C34.5599 39.2087 34.1779 38.8267 33.7066 38.8267Z" fill="black"/>
<path fill-rule="evenodd" clip-rule="evenodd" d="M34.5599 35.4133H29.4428L29.4399 35.4133C28.733 35.4133 28.1599 35.9864 28.1599 36.6933C28.1599 37.4003 28.733 37.9733 29.4399 37.9733V37.9733H34.5599C35.2668 37.9733 35.8399 37.4003 35.8399 36.6933C35.8399 35.9864 35.2668 35.4133 34.5599 35.4133Z" fill="black"/>
<path d="M32 10.6667C26.7416 10.6667 22.3424 13.8659 21.7378 18.0662C21.641 18.6241 21.2267 19.0688 20.6839 19.2103C17.3918 19.9499 14.9333 22.8736 14.9333 26.3682C14.9333 30.4211 18.2404 33.7067 22.3198 33.7067H41.746L41.7479 33.7067C45.7962 33.6706 49.0667 30.3987 49.0667 26.3682C49.0667 22.8805 46.618 19.9616 43.3358 19.2148C42.7825 19.0787 42.3588 18.6288 42.2618 18.0629C41.6553 13.8642 37.257 10.6667 32 10.6667Z" fill="black"/>
<circle cx="32" cy="23.49" r="7" fill="white"/>
<circle cx="32" cy="23.4933" r="6" fill="black"/>
<path d="M32.85 19.2C32.85 19.6713 32.468 20.0533 31.9967 20.0533C30.6678 20.0533 29.5277 20.7983 28.9639 21.9068C28.8281 22.1981 28.5326 22.4 28.19 22.4C27.7187 22.4 27.3367 22.018 27.3367 21.5467C27.3367 21.4036 27.3719 21.2687 27.4341 21.1503C28.2784 19.4829 29.9999 18.3467 31.9967 18.3467C32.468 18.3467 32.85 18.7287 32.85 19.2Z" fill="white"/>
<circle cx="32.0001" cy="23.4667" r="1.70667" fill="white"/>
<circle cx="34.5601" cy="26.88" r="0.853333" fill="white"/>
</svg>
